<?xml version="1.0" standalone="yes"?>
<svg xmlns="http://www.w3.org/2000/svg" width="2000" height="500">
<path style="fill:#ffffff; stroke:none;" d="M0 0L0 500L2000 500L2000 0L0 0z"/>
<path style="fill:#4c6e8d; stroke:none;" d="M226 67L226 91C217.764 89.1174 209.648 87.5981 202.039 92.5625C187.342 102.152 187.769 129.061 201.015 139.606C211.61 148.043 226.979 144.331 239 142L239 65L226 67M420 67L420 117C420 123.267 418.351 132.423 421.858 137.956C425.668 143.967 432.686 143.996 439 144C439.207 141.368 440.363 137.803 439.357 135.274C437.502 130.611 432.856 129.971 432.174 124C429.987 104.831 432 84.3002 432 65L420 67M1020 67L1020 143L1033 143L1033 101C1037.32 100.914 1042.02 99.7281 1045.95 102.093C1049.88 104.463 1050.89 108.756 1051.56 113C1053.09 122.683 1052 133.209 1052 143L1064 143C1064 125.655 1070.86 92.8254 1047 89.3009C1042.27 88.6019 1037.68 89.4083 1033 90L1033 65L1020 67M1201 67.6667C1191.07 69.6882 1194.62 85.4264 1204.96 82.5625C1213.65 80.1545 1210.09 65.8184 1201 67.6667M143 73L143 143L156 143L156 73L143 73M756 76L756 114C756 120.409 754.97 127.859 757.109 134C759.995 142.287 768.712 145.441 777 144.815C781.105 144.505 785.102 143.238 789 142L787 131C784.379 131.831 781.773 132.755 779 132.891C763.993 133.631 768 110.586 768 101L787 101L787 90L768 90L768 75L756 76M943 131C940.39 131.827 937.766 132.784 935 132.887C920.683 133.422 925 110.084 925 101L943 101L943 90L925 90L925 75C921.716 75.0678 915.276 74.7072 913.028 77.5995C910.466 80.8944 912 89.035 912 93C912 102.666 911.954 112.334 912.001 122C912.033 128.625 912.733 136.006 918.105 140.606C923.232 144.995 930.677 145.312 937 144.245C939.321 143.854 942.498 143.635 943.958 141.486C945.893 138.636 943.976 133.883 943 131M1008 131C1005.39 131.827 1002.77 132.784 1000 132.887C985.683 133.422 990 110.084 990 101L1008 101L1008 90L990 90L990 75C986.716 75.0678 980.276 74.7072 978.028 77.5995C975.466 80.8944 977 89.035 977 93C977 102.666 976.954 112.334 977.001 122C977.033 128.625 977.732 136.006 983.105 140.606C988.232 144.995 995.677 145.312 1002 144.245C1004.32 143.854 1007.5 143.635 1008.96 141.486C1010.89 138.636 1008.98 133.883 1008 131M1131 76L1131 114C1131 120.409 1129.97 127.86 1132.11 134C1135 142.287 1143.71 145.441 1152 144.815C1156.11 144.505 1160.1 143.238 1164 142L1162 131C1159.38 131.831 1156.77 132.755 1154 132.891C1138.99 133.631 1143 110.586 1143 101L1162 101L1162 90L1143 90L1143 75L1131 76M294 131C281.463 132.843 269.222 135.943 264 121L299 121C299 111.878 298.919 101.289 291.671 94.5293C282.727 86.1863 266.456 87.5696 258.185 96.1049C252.999 101.457 251.088 108.73 251.004 116C250.883 126.42 253.711 137.052 264 141.811C271.129 145.109 278.431 145.076 286 143.999C288.513 143.642 292.271 143.479 293.971 141.272C295.989 138.655 294.373 133.948 294 131M402 131C390.975 133.274 375.968 135.707 373 121L407 121C407 111.609 407.595 101.231 399.895 94.3403C390.765 86.1707 374.693 87.6694 366.468 96.3009C361.066 101.97 358.516 111.252 359.174 119C360.124 130.2 365.35 140.508 377 143.485C383.196 145.069 388.747 144.684 395 143.949C397.441 143.662 401.348 143.505 402.933 141.272C404.767 138.689 402.843 133.666 402 131M467 89.4645C434.189 95.4203 442.906 150.962 477 144.532C509.221 138.456 500.918 83.3078 467 89.4645M509 162L522 162L522 142C525.352 143.415 528.353 143.953 532 143.996C536.606 144.051 540.887 143.982 544.999 141.633C557.916 134.254 560.197 114.377 553.672 102C547.175 89.6744 533.638 87.769 521 89.5795C517.655 90.0587 511.372 89.8881 509.603 93.4298C507.186 98.2706 509 107.658 509 113L509 162M629 131C623.112 132.655 615.814 134.531 610.015 131.543C599.719 126.237 599.831 109.005 609.043 102.728C614.774 98.8222 621.041 101.095 627 103L630 92C620.758 88.0746 608.67 87.4172 600.015 93.2492C587.125 101.934 584.646 125.416 595.214 136.907C601.761 144.027 611.851 145.59 621 144.271C623.607 143.895 627.286 143.898 628.968 141.486C630.871 138.758 629.241 134.055 629 131M656 89.4645C628.011 94.5108 628.011 139.489 656 144.535C659.28 145.127 662.721 145.151 666 144.532C698.032 138.492 689.802 83.3701 656 89.4645M698 143L711 143L711 101C715.417 100.813 719.908 99.6297 723.945 102.09C727.876 104.486 728.888 108.74 729.561 113C731.09 122.683 730 133.209 730 143L742 143L742 116C742 109.87 742.444 103.558 739.246 98.0401C733.231 87.6613 719.279 88.2639 709 89.7292C706.071 90.1466 701.017 89.9798 699.028 92.5887C696.598 95.7761 698 103.2 698 107L698 143M837 131C825.975 133.274 810.967 135.708 808 121L842 121C842 111.609 842.595 101.231 834.895 94.3403C825.765 86.1706 809.693 87.6694 801.468 96.3009C796.066 101.97 793.516 111.252 794.174 119C795.124 130.2 800.35 140.508 812 143.485C818.196 145.069 823.747 144.684 830 143.949C832.441 143.662 836.348 143.505 837.933 141.272C839.767 138.689 837.843 133.666 837 131M854 143L867 143L867 101C871.276 100.915 876.066 99.6755 879.982 101.942C885.284 105.012 885.972 110.45 885.999 116C886.043 125 886 134 886 143L899 143L899 117C899 110.681 899.105 103.638 895.772 98.0038C889.77 87.8591 876.209 88.2738 866 89.7292C862.868 90.1757 857.194 90.0101 855.028 92.7384C852.586 95.8146 854 103.29 854 107L854 143M1079 91C1079.3 94.7543 1079.87 98.4128 1081 102C1091.05 100.107 1102.89 97.7098 1105 111C1098.25 111 1090.37 109.874 1084 112.483C1072.93 117.015 1070.19 133.022 1080.04 140.49C1087.39 146.057 1105.45 145.762 1113.85 142.606C1118.27 140.946 1117 134.781 1117 131C1117 120.76 1120.29 103.697 1113.2 95.3287C1104.84 85.4596 1089.86 89.6207 1079 91M1222 131L1220 142C1233.59 145.106 1259.5 149.106 1258.98 128C1258.92 125.2 1258.55 122.495 1256.99 120.093C1253.2 114.245 1245.79 113.047 1240 110.095C1237.84 108.991 1234.49 107.057 1235.35 104.093C1237.48 96.7331 1250.18 101.351 1255 102L1257 91C1251.97 90.3505 1247.11 89.0074 1242 89.0077C1236.55 89.0081 1230.44 89.9788 1226.11 93.5579C1220.06 98.5543 1219.31 108.866 1224.42 114.815C1229.63 120.878 1239.66 120.335 1244.46 126.39C1247.01 129.611 1244.2 132.476 1240.98 133.427C1234.67 135.296 1228.17 131.908 1222 131M304 90C307.759 103.246 312.175 116.336 317.579 129C319.211 132.826 320.724 139.606 324.394 141.972C331.426 146.507 337.16 140.897 339.719 135C345.744 121.118 353.755 105.247 355 90L342 90C340.208 97.8158 337.533 105.4 335 113C333.462 117.614 332.431 122.453 329 126C327.724 117.484 323.519 109.293 321.141 101C320.309 98.097 319.81 92.9979 317.272 91.0278C314.294 88.7157 307.579 90 304 90M1196 90L1196 143L1209 143L1209 90L1196 90M1274 90.6157C1263.28 93.1167 1267.1 109.481 1277.98 106.562C1287.82 103.925 1284.18 88.2418 1274 90.6157z"/>
<path style="fill:#ffffff; stroke:none;" d="M226 133L226 117C226 113.445 226.435 109.559 225.852 106.044C224.689 99.0323 214.663 99.3296 210.108 102.703C201.761 108.885 202.914 128.198 213.004 132.106C216.962 133.64 221.835 133 226 133M264 111L286 111C285.161 103.277 277.753 96.6729 270.044 101.742C266.712 103.933 265.259 107.399 264 111M373 111L395 111C393.983 107.526 393.043 103.93 389.891 101.742C382.274 96.457 374.351 103.548 373 111M470.001 100.623C454.876 103.178 456.404 135.496 472.999 133.427C489.451 131.377 487.399 97.6845 470.001 100.623M522 101L522 116C522 119.936 521.171 124.979 522.318 128.775C524.004 134.356 534.051 133.684 537.895 131.142C548.325 124.246 544.542 104.071 532.999 100.929C529.235 99.9044 525.78 100.525 522 101M659 100.623C643.232 103.272 645.106 135.721 662 133.424C678.104 131.234 676.153 97.7422 659 100.623M808 111L830 111C828.983 107.526 828.043 103.93 824.891 101.742C817.274 96.4569 809.351 103.548 808 111M1105 134C1105 130.643 1105.95 125.497 1104.4 122.434C1099.97 113.72 1077.98 126.123 1091.11 132.991C1092.28 133.602 1093.71 133.766 1095 133.895C1098.29 134.226 1101.69 134 1105 134z"/>
<path style="fill:#4c6e8d; stroke:none;" d="M1272.1 128.743C1262.45 132.785 1269.35 147.853 1278.96 143.976C1288.96 139.941 1282.14 124.542 1272.1 128.743z"/>
<path style="fill:#5db158; stroke:none;" d="M1224 214L1224 358L1229 358L1229 214L1224 214M72 216L72 360L77 360L77 216L72 216M715 216L715 360L720 360L720 216L715 216z"/>
<path style="fill:#4c6e8d; stroke:none;" d="M538.015 242.696C528.243 245.278 532.214 260.018 541.985 257.677C551.757 255.337 547.834 240.102 538.015 242.696M1025.02 246.696C1015.24 249.278 1019.21 264.018 1028.98 261.677C1038.76 259.337 1034.83 244.102 1025.02 246.696M144 249L144 318L157 318L157 292C159.892 292.002 163.271 291.603 165.91 293.028C174.616 297.728 176.055 310.516 183.39 316.397C187.134 319.399 194.482 318 199 318C194.639 307.528 188.025 297.858 181 289C197.641 285.044 198.81 261.722 185.996 252.649C174.698 244.649 156.839 247.987 144 249M1458 328L1471 328L1471 286L1490 286L1490 275L1471 275C1471.12 262.181 1479.24 260.541 1490 263C1490.56 260.263 1492.76 255.275 1490.93 252.738C1489.26 250.427 1484.56 250.265 1482 250.09C1473.43 249.502 1464.78 252.029 1460.42 260.001C1456.7 266.794 1458 275.541 1458 283L1458 328M1845 252L1845 302C1845 308.267 1843.35 317.423 1846.86 322.956C1850.67 328.967 1857.69 328.996 1864 329C1864.21 326.368 1865.36 322.803 1864.36 320.274C1862.5 315.611 1857.86 314.971 1857.17 309C1854.99 289.831 1857 269.3 1857 250L1845 252M847 319L844 308C835.191 310.038 826.995 314.048 818 310.211C802.029 303.396 800.35 276.703 814.04 266.649C822.706 260.285 833.005 263.53 842 267C844.024 263.158 845.365 259.301 846 255C838.865 252.252 832.653 250.988 825 251C815.741 251.014 806.965 253.314 800.301 260.184C787.456 273.427 787.026 301.594 800.105 314.907C807.5 322.434 817.829 324.406 828 323.961C834.612 323.671 841.155 322.08 847 319M1650 252.667C1640.07 254.688 1643.62 270.426 1653.96 267.562C1662.65 265.154 1659.09 250.818 1650 252.667M1296 259L1296 328L1309 328L1309 304C1319 304 1330.21 304.319 1338.91 298.532C1349.87 291.239 1350.26 271.576 1339.96 263.558C1328.37 254.536 1309.48 257.936 1296 259z"/>
<path style="fill:#ffffff; stroke:none;" d="M157 281C160.959 281 165.066 281.306 169 280.815C171.05 280.559 173.105 280.013 174.956 279.08C180.802 276.134 182.51 268.189 177.697 263.394C174.877 260.586 170.767 259.968 167 259.428C164.334 259.047 159.997 258.309 158.028 260.742C154.865 264.651 157 276.129 157 281z"/>
<path style="fill:#4c6e8d; stroke:none;" d="M247 306C235.975 308.274 220.967 310.708 218 296L252 296C252 286.609 252.595 276.231 244.895 269.34C235.765 261.171 219.693 262.669 211.468 271.301C206.066 276.97 203.516 286.252 204.174 294C205.124 305.2 210.35 315.508 222 318.485C228.196 320.069 233.747 319.684 240 318.949C242.441 318.662 246.348 318.505 247.933 316.272C249.767 313.689 247.843 308.666 247 306M262 306L260 317C269.895 319.262 280.075 321.577 289.999 317.867C299.002 314.502 302.802 303.156 297.272 295.043C293.271 289.173 285.929 288.063 280.015 285.084C277.842 283.989 274.692 282.011 275.461 279.093C277.428 271.639 290.295 276.308 295 277C295.759 273.32 296.694 269.752 297 266C291.97 265.35 287.105 264.007 282 264.008C268.589 264.009 253.748 276.175 264.649 289.815C269.692 296.125 279.558 295.382 284.508 301.39C287.203 304.661 284.282 307.477 280.995 308.427C274.816 310.212 268.07 306.892 262 306M310 337L323 337L323 317C326.352 318.414 329.353 318.953 333 318.996C337.606 319.051 341.887 318.982 345.999 316.633C358.916 309.254 361.197 289.377 354.672 277C348.175 264.674 334.638 262.769 322 264.579C318.655 265.059 312.372 264.888 310.603 268.43C308.186 273.271 310 282.657 310 288L310 337M387 264.468C354.934 270.525 363.323 325.607 397 319.535C424.989 314.489 424.989 269.511 397 264.465C393.721 263.873 390.278 263.848 387 264.468M430 318L442 318L442 276C446.911 275.902 452.525 274.485 456.786 277.728C461.013 280.944 460.992 286.197 461 291L461 318L474 318L474 291C474 284.891 474.333 278.429 470.995 273.004C464.743 262.845 451.394 263.247 441 264.729C438.071 265.147 433.017 264.98 431.028 267.589C428.598 270.776 430 278.2 430 282L430 318M486 306L484 317C497.587 320.106 523.501 324.106 522.984 303C522.915 300.2 522.548 297.496 520.991 295.093C517.199 289.245 509.792 288.047 504.005 285.095C501.84 283.991 498.485 282.057 499.346 279.093C501.483 271.733 514.181 276.351 519 277L521 266C515.97 265.35 511.105 264.007 506 264.008C500.551 264.008 494.439 264.979 490.108 268.558C484.062 273.554 483.306 283.866 488.419 289.815C493.629 295.878 503.661 295.335 508.458 301.39C511.01 304.611 508.196 307.476 504.984 308.427C498.672 310.296 492.169 306.908 486 306M653 306C640.463 307.843 628.222 310.943 623 296L658 296C658 286.878 657.919 276.289 650.671 269.529C641.727 261.186 625.456 262.57 617.185 271.105C611.999 276.457 610.088 283.73 610.004 291C609.883 301.42 612.711 312.052 623 316.811C630.129 320.109 637.431 320.076 645 318.999C647.513 318.642 651.271 318.479 652.971 316.272C654.989 313.655 653.373 308.948 653 306M534 265L534 318L547 318L547 265L534 265M555 265C556.269 279.556 563.734 294.699 569.427 308C572.255 314.606 576.413 321.041 584.787 317.397C589.149 315.498 590.887 308.025 592.576 304C597.863 291.399 602.915 278.334 606 265L592 265C590.118 277.789 583.174 289.366 581 302C576.86 294.226 574.255 285.419 571.72 277C570.765 273.829 570.289 268.126 567.437 266.028C564.495 263.864 558.47 265 555 265M873 268.465C840.189 274.42 848.906 329.962 883 323.532C915.221 317.456 906.918 262.308 873 268.465M915 322L928 322L928 280C932.276 279.915 937.066 278.676 940.982 280.942C946.284 284.012 946.972 289.45 946.999 295C947.043 304 947 313 947 322L960 322L960 296C960 289.681 960.105 282.638 956.772 277.004C950.77 266.859 937.209 267.274 927 268.729C923.868 269.176 918.194 269.01 916.028 271.738C913.586 274.815 915 282.29 915 286L915 322M1011 310C1005.11 311.655 997.814 313.531 992.015 310.543C981.719 305.237 981.831 288.005 991.043 281.728C996.774 277.822 1003.04 280.095 1009 282L1012 271C1002.76 267.075 990.67 266.417 982.015 272.249C969.125 280.935 966.646 304.416 977.214 315.907C983.761 323.027 993.851 324.59 1003 323.271C1005.61 322.895 1009.29 322.898 1010.97 320.486C1012.87 317.758 1011.24 313.055 1011 310M1046 310C1045.77 312.911 1044.1 317.726 1046.03 320.272C1048 322.868 1053.07 322.952 1056 323.41C1065.64 324.915 1080.72 323.355 1083.47 312C1086.01 301.5 1078.77 295.198 1070 291.427C1066.99 290.134 1058.18 287.443 1059.61 282.684C1061.67 275.864 1074.57 280.085 1079 281C1080.23 277.374 1080.84 273.826 1081 270C1068.28 268.357 1046.01 264.474 1046.01 284C1046.01 286.385 1046.08 288.822 1047.18 290.996C1051.68 299.882 1063.06 298.287 1068.62 305.224C1071.31 308.577 1068.44 311.62 1065 312.566C1058.87 314.248 1052.01 310.884 1046 310M1134 310C1122.97 312.274 1107.97 314.708 1105 300L1139 300C1139 290.609 1139.6 280.231 1131.9 273.34C1122.77 265.171 1106.69 266.669 1098.47 275.301C1093.07 280.97 1090.52 290.252 1091.17 298C1092.12 309.2 1097.35 319.508 1109 322.485C1115.2 324.069 1120.75 323.684 1127 322.949C1129.44 322.662 1133.35 322.505 1134.93 320.272C1136.77 317.689 1134.84 312.666 1134 310M1021 269L1021 322L1034 322L1034 269L1021 269z"/>
<path style="fill:#ffffff; stroke:none;" d="M1309 292C1313.28 292 1317.75 292.353 1322 291.815C1324.07 291.553 1326.16 291.002 1327.96 289.91C1333.2 286.732 1335.08 278.085 1330.57 273.419C1327.93 270.693 1323.58 270.002 1320 269.439C1317.16 268.993 1312.13 268.142 1310.03 270.742C1308.7 272.381 1309.01 275.044 1309 277.001L1309 292z"/>
<path style="fill:#4c6e8d; stroke:none;" d="M1358 277L1358 328L1370 328L1370 286C1376.32 285.733 1381.73 285.82 1388 287C1388.72 284.215 1390.77 279.238 1388.93 276.589C1387.41 274.4 1383.38 274.257 1381 274.09C1373.12 273.534 1365.64 275.423 1358 277M1415 274.468C1382.93 280.525 1391.32 335.607 1425 329.535C1452.99 324.489 1452.99 279.511 1425 274.465C1421.72 273.873 1418.28 273.848 1415 274.468M1537 316C1524.46 317.843 1512.22 320.943 1507 306L1542 306C1542 296.878 1541.92 286.289 1534.67 279.529C1525.73 271.186 1509.46 272.57 1501.19 281.105C1496 286.457 1494.09 293.73 1494 301C1493.88 311.42 1496.71 322.052 1507 326.811C1514.13 330.109 1521.43 330.076 1529 328.999C1531.51 328.642 1535.27 328.479 1536.97 326.272C1538.99 323.655 1537.37 318.948 1537 316M1552 316C1551.29 318.729 1549.23 323.686 1551.07 326.272C1552.96 328.947 1558.11 328.858 1561 329.271C1570.24 330.591 1584.96 329.75 1588.35 318.999C1591.41 309.282 1585.59 301.695 1577 298.015C1573.52 296.527 1564.2 294.327 1564.92 289.093C1565.96 281.518 1580.72 286.423 1585 287C1585.28 283.542 1586.06 280.336 1587 277C1574.77 271.831 1551.03 271.811 1551.03 290C1551.03 292.041 1551.23 294.093 1552.01 295.999C1556.06 305.952 1567.62 304.046 1573.66 311.213C1580.25 319.026 1565.03 319.019 1561 318.112C1557.99 317.435 1555.02 316.624 1552 316M1597 316C1596.77 318.911 1595.1 323.726 1597.03 326.272C1599 328.868 1604.07 328.952 1607 329.41C1616.64 330.915 1631.72 329.355 1634.47 318C1637.01 307.5 1629.77 301.198 1621 297.427C1617.99 296.134 1609.18 293.443 1610.61 288.684C1612.67 281.864 1625.57 286.085 1630 287C1631.23 283.374 1631.84 279.826 1632 276C1619.28 274.357 1597.01 270.474 1597.01 290C1597.01 292.385 1597.08 294.823 1598.18 296.996C1602.68 305.882 1614.06 304.287 1619.62 311.224C1622.31 314.577 1619.44 317.62 1616 318.566C1609.87 320.248 1603.02 316.884 1597 316M1690 274.468C1657.93 280.525 1666.32 335.607 1700 329.535C1727.99 324.489 1727.99 279.511 1700 274.465C1696.72 273.873 1693.28 273.848 1690 274.468M1733 328L1745 328L1745 286C1749.91 285.902 1755.52 284.485 1759.79 287.728C1764.01 290.944 1763.99 296.197 1764 301L1764 328L1777 328L1777 301C1777 294.891 1777.33 288.429 1773.99 283.004C1767.74 272.845 1754.39 273.247 1744 274.729C1741.07 275.147 1736.02 274.98 1734.03 277.589C1731.6 280.776 1733 288.2 1733 292L1733 328M1792 277L1794 287C1803.72 285.745 1816.46 282.185 1818 296C1811.82 296 1805 295.207 1799 296.939C1787.73 300.19 1783.26 314.896 1791.39 323.786C1797.88 330.878 1811.29 329.662 1820 328.83C1822.69 328.574 1827.21 328.572 1829.4 326.822C1831.12 325.447 1830.96 322.974 1831 320.996C1831.1 315.668 1831 310.329 1831 305C1831 297.688 1831.76 288.552 1827.77 282.04C1821.04 271.056 1802.19 272.694 1792 277z"/>
<path style="fill:#ffffff; stroke:none;" d="M218 286L240 286C238.983 282.526 238.043 278.93 234.891 276.742C227.274 271.457 219.351 278.548 218 286M323 276L323 291C323 294.936 322.171 299.979 323.318 303.775C325.004 309.356 335.051 308.684 338.895 306.142C349.325 299.246 345.542 279.071 333.999 275.929C330.235 274.904 326.78 275.525 323 276M391 275.576C374.76 277.785 377.003 311.232 394 308.377C409.684 305.742 407.99 273.266 391 275.576M623 286L645 286C644.161 278.277 636.753 271.673 629.044 276.742C625.712 278.933 624.259 282.399 623 286z"/>
<path style="fill:#4c6e8d; stroke:none;" d="M1645 275L1645 328L1658 328L1658 275L1645 275z"/>
<path style="fill:#ffffff; stroke:none;" d="M876.001 279.623C860.876 282.178 862.404 314.496 878.999 312.427C895.451 310.377 893.399 276.685 876.001 279.623M1105 290L1127 290C1125.98 286.526 1125.04 282.93 1121.89 280.742C1114.27 275.457 1106.35 282.549 1105 290M1419 285.576C1402.76 287.785 1405 321.232 1422 318.377C1437.68 315.742 1435.99 283.266 1419 285.576M1507 296L1529 296C1528.16 288.277 1520.75 281.673 1513.04 286.742C1509.71 288.933 1508.26 292.399 1507 296M1694 285.576C1677.76 287.785 1680 321.232 1697 318.377C1712.68 315.742 1710.99 283.266 1694 285.576M1818 319C1818 315.643 1818.95 310.497 1817.4 307.434C1813.33 299.421 1791.67 309.724 1804.11 317.821C1805.23 318.553 1806.7 318.745 1808 318.891C1811.28 319.26 1814.7 319 1818 319z"/>
</svg>
