<svg id="svg" version="1.1" width="400" height="200" xmlns="http://www.w3.org/2000/svg" xmlns:xlink="http://www.w3.org/1999/xlink" style="display: block;"><g id="svgg"><path id="path0" d="" stroke="none" fill="#4a6b8c" fill-rule="evenodd"></path><path id="path1" d="M75.250 31.863 L 72.800 32.276 72.800 49.338 L 72.800 66.400 75.600 66.400 L 78.400 66.400 78.400 57.035 L 78.400 47.669 79.673 47.435 C 83.979 46.641,85.797 47.504,86.766 50.800 C 86.815 50.965,86.895 54.542,86.944 58.750 L 87.033 66.400 89.830 66.400 L 92.627 66.400 92.549 58.050 C 92.490 51.694,92.406 49.509,92.198 48.900 C 92.048 48.460,91.920 48.040,91.913 47.967 C 91.906 47.893,91.833 47.766,91.750 47.683 C 91.668 47.601,91.600 47.400,91.600 47.237 C 91.600 46.805,90.304 44.923,89.595 44.327 C 88.950 43.783,87.000 42.736,87.000 42.933 C 87.000 42.997,86.888 42.956,86.750 42.843 C 86.185 42.379,82.426 42.131,80.700 42.446 C 79.144 42.729,78.726 42.822,78.564 42.922 C 78.474 42.978,78.400 40.408,78.400 37.212 C 78.400 31.801,78.376 31.402,78.050 31.425 C 77.858 31.438,76.598 31.635,75.250 31.863 M128.245 31.863 L 125.790 32.278 125.845 47.289 L 125.900 62.300 126.361 63.300 C 127.029 64.751,128.918 66.388,129.949 66.408 C 130.032 66.410,130.415 66.491,130.800 66.588 C 131.560 66.780,134.199 67.073,134.201 66.966 C 134.202 66.930,134.380 65.870,134.597 64.612 C 134.813 63.353,134.970 62.304,134.945 62.279 C 134.920 62.254,134.630 62.199,134.300 62.157 C 131.246 61.767,131.400 62.643,131.400 45.637 C 131.400 32.202,131.380 31.401,131.050 31.425 C 130.858 31.438,129.595 31.636,128.245 31.863 M39.932 33.084 C 39.010 33.696,38.395 35.065,38.502 36.267 C 38.872 40.409,44.899 40.406,45.311 36.264 C 45.591 33.450,42.306 31.507,39.932 33.084 M200.951 34.607 C 195.742 35.484,192.947 38.577,192.915 43.500 C 192.884 48.091,194.808 50.195,201.259 52.630 C 205.786 54.338,207.119 55.250,207.745 57.065 C 208.469 59.168,207.271 61.175,204.903 61.823 C 203.447 62.221,197.687 61.904,197.050 61.390 C 197.023 61.368,196.933 61.333,196.850 61.313 C 196.768 61.292,196.352 61.124,195.926 60.938 C 195.500 60.752,195.069 60.600,194.969 60.600 C 194.868 60.600,194.573 60.460,194.312 60.290 C 193.848 59.985,193.528 60.486,193.091 62.200 C 193.077 62.255,193.007 62.435,192.936 62.600 C 192.715 63.113,192.200 64.643,192.200 64.788 C 192.200 65.018,195.471 66.416,196.000 66.412 C 196.055 66.412,196.415 66.496,196.800 66.599 C 199.435 67.304,204.099 67.356,206.750 66.710 C 206.998 66.649,207.403 66.557,207.650 66.504 C 208.085 66.412,208.329 66.316,209.400 65.817 C 212.560 64.346,213.869 62.094,213.890 58.100 C 213.916 52.963,212.149 51.000,204.905 48.113 C 200.053 46.179,198.998 45.261,199.064 43.028 C 199.147 40.242,202.271 38.806,206.291 39.704 C 206.516 39.755,206.937 39.834,207.226 39.880 C 207.516 39.927,208.326 40.205,209.026 40.498 C 211.003 41.324,210.871 41.344,211.277 40.162 C 211.477 39.578,211.819 38.702,212.037 38.216 C 212.795 36.527,212.730 36.395,210.764 35.658 C 207.791 34.543,203.843 34.120,200.951 34.607 M6.000 50.800 L 6.000 66.400 8.900 66.400 L 11.800 66.400 11.800 55.283 L 11.800 44.166 12.911 45.633 C 13.522 46.439,14.220 47.325,14.461 47.600 C 14.703 47.876,15.250 48.615,15.678 49.243 C 16.106 49.871,16.604 50.545,16.784 50.742 C 16.965 50.939,17.321 51.440,17.576 51.855 C 17.831 52.271,18.143 52.721,18.270 52.855 C 18.396 52.990,19.355 54.405,20.400 56.000 C 21.445 57.595,22.367 58.930,22.450 58.967 C 22.532 59.003,22.600 59.117,22.600 59.220 C 22.600 59.384,23.935 61.537,24.199 61.800 C 24.255 61.855,24.473 62.215,24.685 62.600 C 24.897 62.985,25.122 63.345,25.185 63.400 C 25.248 63.455,25.473 63.815,25.685 64.200 C 25.897 64.585,26.280 65.237,26.538 65.650 L 27.005 66.400 29.503 66.400 L 32.000 66.400 32.000 50.800 L 32.000 35.200 29.100 35.200 L 26.200 35.200 26.184 45.450 C 26.176 51.088,26.116 55.565,26.053 55.400 C 25.929 55.080,22.816 50.368,22.617 50.200 C 22.552 50.145,22.171 49.605,21.770 49.000 C 21.369 48.395,20.899 47.720,20.727 47.500 C 20.554 47.280,19.610 46.020,18.630 44.700 C 17.649 43.380,16.703 42.120,16.527 41.900 C 16.351 41.680,15.605 40.735,14.869 39.800 C 14.133 38.865,12.953 37.448,12.247 36.650 L 10.964 35.200 8.482 35.200 L 6.000 35.200 6.000 50.800 M60.183 42.281 C 60.138 42.326,59.830 42.411,59.500 42.469 C 58.030 42.732,57.914 42.768,56.600 43.385 C 55.352 43.971,54.851 44.334,53.812 45.403 C 51.053 48.242,50.150 50.796,50.274 55.400 C 50.427 61.055,52.683 64.499,57.500 66.431 C 59.416 67.200,65.430 67.133,67.500 66.320 C 67.610 66.276,67.903 66.176,68.150 66.097 C 68.683 65.927,68.689 65.828,68.292 63.500 C 67.912 61.269,67.867 61.135,67.551 61.332 C 67.413 61.418,67.210 61.505,67.100 61.524 C 66.990 61.543,66.323 61.695,65.617 61.860 C 59.541 63.287,56.102 60.696,56.112 54.700 C 56.123 48.238,60.390 45.506,66.695 47.926 C 67.025 48.052,67.469 47.221,67.669 46.100 C 67.797 45.384,67.912 44.917,68.172 44.061 L 68.366 43.421 67.133 43.017 C 65.168 42.373,60.587 41.888,60.183 42.281 M107.400 42.261 C 107.345 42.317,107.030 42.411,106.700 42.471 C 105.204 42.740,104.831 42.867,103.544 43.543 C 102.170 44.265,99.800 46.409,99.800 46.930 C 99.800 47.078,99.722 47.200,99.627 47.200 C 99.461 47.200,98.472 49.231,98.287 49.951 C 95.276 61.692,103.942 70.546,114.050 66.056 C 114.683 65.775,115.200 65.468,115.200 65.373 C 115.200 65.278,115.319 65.200,115.466 65.200 C 116.569 65.200,119.407 60.976,119.912 58.583 C 120.366 56.432,120.434 55.663,120.334 53.800 C 120.196 51.225,118.999 47.200,118.373 47.200 C 118.278 47.200,118.200 47.105,118.200 46.988 C 118.200 46.257,114.656 43.200,113.809 43.200 C 113.628 43.200,113.395 43.115,113.290 43.012 C 113.186 42.909,112.875 42.778,112.600 42.722 C 112.325 42.666,111.875 42.561,111.600 42.489 C 110.942 42.317,107.528 42.131,107.400 42.261 M143.900 42.419 C 142.307 42.669,141.675 42.799,140.550 43.109 C 140.468 43.131,140.253 43.161,140.074 43.175 C 139.804 43.196,139.773 43.345,139.891 44.050 C 139.969 44.518,140.058 45.080,140.087 45.300 C 140.446 47.961,140.404 47.847,140.971 47.724 C 147.955 46.211,150.668 47.014,151.249 50.764 C 151.509 52.447,151.518 52.431,150.494 52.194 C 148.101 51.639,143.059 52.139,141.162 53.120 C 136.211 55.678,136.402 63.766,141.465 66.005 C 143.213 66.778,145.067 67.014,148.600 66.911 C 151.275 66.834,152.390 66.724,154.500 66.327 C 154.720 66.285,155.328 66.189,155.850 66.113 L 156.800 65.975 156.798 58.238 C 156.797 48.286,156.558 46.812,154.632 44.818 C 152.482 42.592,148.491 41.700,143.900 42.419 M169.000 42.259 C 168.945 42.316,168.630 42.411,168.300 42.471 C 166.820 42.737,166.456 42.858,165.411 43.428 C 161.378 45.626,160.641 52.111,164.170 54.354 C 164.461 54.539,164.745 54.749,164.800 54.820 C 164.982 55.054,167.270 56.135,169.200 56.899 C 172.578 58.237,173.558 59.208,173.151 60.814 C 172.788 62.242,168.853 62.864,165.600 62.007 C 164.995 61.848,164.455 61.706,164.400 61.692 C 163.513 61.470,163.057 61.311,162.859 61.155 C 162.447 60.832,162.276 61.131,162.010 62.641 C 161.672 64.554,161.661 64.609,161.499 65.241 C 161.365 65.767,161.582 65.936,162.600 66.101 C 162.655 66.110,163.015 66.222,163.400 66.351 C 163.785 66.480,164.370 66.649,164.700 66.727 C 165.684 66.958,171.836 67.003,172.700 66.786 C 173.140 66.675,173.590 66.563,173.700 66.537 C 173.810 66.510,174.013 66.418,174.150 66.333 C 174.288 66.247,174.400 66.223,174.400 66.280 C 174.400 66.489,176.444 65.349,177.098 64.775 C 177.916 64.057,178.563 62.778,178.713 61.585 C 178.774 61.098,178.858 60.595,178.899 60.467 C 179.046 60.011,178.608 57.687,178.226 56.900 C 177.719 55.853,176.307 54.400,175.798 54.400 C 175.689 54.400,175.600 54.325,175.600 54.234 C 175.600 54.143,175.128 53.862,174.550 53.610 C 173.972 53.358,173.275 53.040,173.000 52.902 C 172.571 52.687,171.103 52.152,170.800 52.100 C 168.735 51.745,167.129 49.660,167.725 48.108 C 168.253 46.732,172.649 46.463,175.700 47.620 C 176.250 47.829,176.709 48.000,176.721 48.000 C 176.741 48.000,177.308 45.407,177.487 44.500 C 177.530 44.280,177.624 43.952,177.696 43.770 C 177.842 43.403,177.699 43.271,176.986 43.114 C 176.719 43.056,175.960 42.868,175.300 42.698 C 174.131 42.395,169.200 42.052,169.000 42.259 M225.833 42.494 C 224.805 42.741,224.503 42.856,223.020 43.569 C 222.112 44.005,219.730 46.238,219.306 47.051 C 218.367 48.850,217.989 49.651,217.931 49.960 C 217.896 50.147,217.747 50.705,217.600 51.200 C 216.268 55.688,218.108 62.087,221.503 64.772 C 223.905 66.670,229.404 67.556,233.600 66.720 C 234.390 66.563,237.200 65.765,237.200 65.698 C 237.200 65.674,237.107 65.170,236.993 64.577 C 236.879 63.985,236.740 63.095,236.683 62.600 C 236.497 60.954,236.548 60.996,235.204 61.414 C 228.934 63.366,223.200 61.192,223.200 56.864 L 223.200 56.400 230.900 56.400 L 238.600 56.400 238.615 55.350 C 238.651 52.902,238.560 51.419,238.299 50.148 C 238.004 48.713,237.062 46.400,236.773 46.400 C 236.678 46.400,236.600 46.301,236.600 46.180 C 236.600 45.419,233.390 43.009,231.994 42.722 C 231.723 42.666,231.275 42.562,231.000 42.491 C 230.028 42.238,226.890 42.241,225.833 42.494 M249.783 42.283 C 249.738 42.328,249.205 42.419,248.600 42.486 C 247.995 42.552,247.005 42.746,246.400 42.918 C 245.795 43.089,245.188 43.238,245.050 43.248 C 244.913 43.258,244.800 43.284,244.800 43.306 C 244.800 43.328,244.894 43.830,245.008 44.423 C 245.123 45.015,245.266 45.950,245.325 46.500 C 245.472 47.849,245.556 47.895,247.131 47.494 C 252.667 46.081,256.244 47.509,256.377 51.185 L 256.419 52.350 255.560 52.184 C 254.384 51.956,250.302 51.974,249.200 52.211 C 248.705 52.317,248.087 52.452,247.828 52.510 C 246.105 52.896,244.067 54.514,243.281 56.121 C 241.792 59.164,243.018 64.341,245.482 65.417 C 245.712 65.517,246.035 65.682,246.200 65.783 C 247.586 66.632,249.168 66.900,252.800 66.900 C 256.004 66.900,258.551 66.643,260.850 66.086 C 260.933 66.066,261.185 66.039,261.412 66.025 C 262.086 65.984,261.916 49.131,261.221 47.244 C 260.319 44.791,258.237 43.126,255.297 42.503 C 254.044 42.237,249.992 42.076,249.783 42.283 M274.343 42.404 C 273.487 42.502,272.272 42.683,271.643 42.807 C 271.014 42.930,270.187 43.079,269.804 43.138 C 269.421 43.197,268.903 43.323,268.654 43.418 L 268.200 43.590 268.200 54.995 L 268.200 66.400 271.100 66.400 L 274.000 66.400 274.000 56.923 L 274.000 47.447 274.450 47.364 C 280.943 46.168,281.795 47.639,281.798 60.050 L 281.800 66.400 284.600 66.400 L 287.400 66.400 287.396 59.050 C 287.392 52.373,287.293 50.290,286.907 48.788 C 286.572 47.485,291.548 46.631,293.219 47.705 C 294.897 48.783,295.191 50.617,295.196 60.050 L 295.200 66.400 298.000 66.400 L 300.800 66.400 300.799 58.950 C 300.797 50.516,300.621 48.619,299.647 46.538 C 297.542 42.039,291.466 40.919,285.497 43.930 L 284.493 44.436 283.431 43.721 C 281.516 42.432,278.243 41.958,274.343 42.404 M311.900 42.403 C 308.092 43.061,307.790 43.164,307.884 43.770 C 307.929 44.061,308.078 45.088,308.215 46.050 C 308.481 47.915,308.480 47.914,309.675 47.583 C 313.142 46.620,316.913 46.877,318.190 48.164 C 318.964 48.943,319.113 49.347,319.328 51.251 L 319.457 52.401 318.779 52.251 C 317.893 52.054,312.730 52.073,311.700 52.277 C 308.816 52.848,306.719 54.604,305.821 57.200 C 305.493 58.150,305.722 61.728,306.176 62.743 C 306.934 64.437,309.015 66.116,310.800 66.475 C 311.075 66.530,311.840 66.682,312.500 66.812 C 313.841 67.077,319.397 66.934,321.100 66.592 C 321.650 66.481,322.325 66.355,322.600 66.311 C 322.875 66.268,323.484 66.172,323.954 66.098 L 324.808 65.963 324.788 58.032 C 324.765 49.048,324.665 48.008,323.645 46.135 C 321.972 43.060,317.086 41.508,311.900 42.403 M337.366 42.389 C 336.523 42.477,335.488 42.620,335.066 42.707 C 334.645 42.793,334.165 42.889,334.000 42.920 C 333.835 42.951,333.138 43.082,332.450 43.211 L 331.200 43.445 331.200 54.923 L 331.200 66.400 334.000 66.400 L 336.800 66.400 336.800 56.928 L 336.800 47.457 338.029 47.328 C 341.221 46.995,342.953 47.278,344.119 48.324 C 344.451 48.622,345.386 50.653,345.398 51.101 C 345.399 51.155,345.400 54.620,345.400 58.800 L 345.400 66.400 348.319 66.400 L 351.238 66.400 351.151 58.350 C 351.043 48.351,350.849 47.318,348.632 44.948 C 347.879 44.143,345.728 42.761,345.299 42.806 C 345.242 42.813,344.859 42.721,344.448 42.602 C 343.448 42.315,339.275 42.189,337.366 42.389 M362.293 42.494 C 359.651 43.070,357.057 45.002,356.712 46.653 C 356.684 46.789,356.588 47.068,356.500 47.273 C 355.830 48.832,356.457 52.086,357.716 53.582 C 358.544 54.567,362.545 56.878,363.253 56.781 C 364.220 56.648,367.278 58.744,367.519 59.706 C 367.980 61.542,366.803 62.301,363.500 62.297 C 360.830 62.295,360.042 62.176,358.200 61.500 C 356.658 60.934,356.655 60.935,356.505 61.934 C 356.352 62.954,356.320 63.123,356.013 64.463 C 355.725 65.720,355.904 65.947,357.455 66.293 C 357.700 66.348,358.485 66.538,359.200 66.715 C 361.112 67.189,366.836 67.025,368.417 66.450 C 371.895 65.186,373.036 63.669,373.117 60.200 C 373.210 56.236,371.772 54.647,366.063 52.402 C 362.707 51.083,361.900 50.443,361.900 49.106 C 361.900 46.958,365.126 46.201,369.247 47.383 C 369.936 47.581,370.629 47.778,370.786 47.821 C 371.050 47.894,371.552 46.313,371.874 44.400 C 371.920 44.125,371.990 43.769,372.029 43.609 C 372.068 43.449,372.010 43.306,371.900 43.292 C 371.790 43.277,371.565 43.208,371.400 43.139 C 369.506 42.337,364.607 41.991,362.293 42.494 M39.000 54.600 L 39.000 66.400 41.900 66.400 L 44.800 66.400 44.800 54.600 L 44.800 42.800 41.900 42.800 L 39.000 42.800 39.000 54.600 M230.400 47.368 C 232.008 48.349,232.668 49.385,232.936 51.350 L 233.052 52.200 228.110 52.200 L 223.168 52.200 223.302 51.550 C 224.028 48.031,227.822 45.795,230.400 47.368 M111.039 47.539 C 112.327 48.054,113.877 49.838,114.131 51.096 C 114.571 53.275,114.630 53.922,114.526 55.400 C 114.404 57.123,114.388 57.232,114.101 58.300 C 113.946 58.875,113.206 60.047,112.455 60.906 C 111.419 62.090,108.371 62.522,106.736 61.717 C 105.941 61.326,104.800 60.305,104.800 59.985 C 104.800 59.883,104.723 59.800,104.628 59.800 C 103.796 59.800,103.078 53.562,103.706 51.783 C 103.859 51.349,103.981 50.947,103.978 50.889 C 103.960 50.614,105.210 48.653,105.635 48.288 C 106.874 47.226,109.386 46.877,111.039 47.539 M150.900 56.257 C 151.400 56.358,151.639 61.925,151.156 62.232 C 150.774 62.474,146.220 62.431,145.302 62.176 C 143.067 61.556,142.407 58.440,144.194 56.943 C 145.150 56.143,148.581 55.792,150.900 56.257 M255.390 56.217 L 256.400 56.433 256.400 59.305 C 256.400 61.065,256.320 62.226,256.193 62.304 C 255.998 62.425,251.444 62.450,250.800 62.334 C 247.288 61.702,247.535 56.642,251.098 56.235 C 251.429 56.197,251.738 56.129,251.783 56.083 C 251.951 55.915,254.409 56.006,255.390 56.217 M318.308 56.202 L 319.411 56.431 319.355 59.365 L 319.300 62.300 316.300 62.300 C 312.891 62.300,312.200 62.081,311.550 60.793 C 309.933 57.587,313.455 55.194,318.308 56.202 M102.940 95.526 C 102.918 95.548,102.495 95.620,102.000 95.687 C 101.505 95.753,100.492 95.904,99.749 96.022 L 98.398 96.237 98.449 112.968 L 98.500 129.700 100.229 130.134 C 106.097 131.608,112.313 131.117,115.136 128.959 C 116.791 127.694,118.879 124.838,119.069 123.578 C 119.092 123.425,119.170 123.205,119.243 123.090 C 119.963 121.940,119.933 116.042,119.195 113.700 C 118.028 109.995,115.636 107.356,112.841 106.693 C 112.654 106.648,112.184 106.533,111.797 106.437 C 110.108 106.019,106.363 106.268,105.650 106.846 C 105.513 106.958,105.400 106.991,105.400 106.919 C 105.400 106.848,105.130 106.929,104.800 107.100 L 104.200 107.410 104.200 101.402 L 104.200 95.394 103.590 95.440 C 103.255 95.466,102.962 95.504,102.940 95.526 M247.340 95.526 C 247.318 95.548,246.895 95.620,246.400 95.687 C 245.905 95.753,244.890 95.904,244.144 96.023 L 242.788 96.238 242.850 110.769 C 242.885 118.761,242.976 125.525,243.053 125.800 C 243.130 126.075,243.246 126.542,243.310 126.838 C 243.564 128.010,245.421 129.889,246.533 130.100 C 246.735 130.138,246.900 130.183,246.900 130.200 C 246.900 130.217,247.035 130.265,247.200 130.307 C 248.599 130.666,249.053 130.738,250.128 130.776 L 251.356 130.819 251.593 129.460 C 252.127 126.394,252.122 126.236,251.477 126.097 C 250.164 125.814,249.485 125.454,249.053 124.813 L 248.600 124.141 248.600 109.767 L 248.600 95.394 247.990 95.440 C 247.655 95.466,247.362 95.504,247.340 95.526 M139.000 99.004 C 137.703 99.182,136.945 99.327,136.398 99.501 C 136.005 99.625,136.000 99.824,136.000 114.798 L 136.000 129.968 136.550 130.081 C 141.127 131.016,147.808 130.966,151.700 129.969 C 153.306 129.557,155.447 128.540,156.932 127.482 C 159.316 125.785,161.300 122.785,162.144 119.600 C 162.511 118.217,162.651 112.418,162.352 111.000 C 162.271 110.615,162.155 110.039,162.093 109.719 C 162.031 109.400,161.892 108.972,161.783 108.769 C 161.675 108.566,161.633 108.400,161.690 108.400 C 161.902 108.400,160.811 106.195,160.034 105.050 C 158.120 102.232,154.531 99.984,150.900 99.331 C 150.570 99.272,149.760 99.128,149.100 99.013 C 147.754 98.777,140.695 98.771,139.000 99.004 M29.091 99.350 C 29.165 99.542,29.276 100.060,29.336 100.500 C 29.397 100.940,29.712 102.560,30.035 104.100 C 30.359 105.640,30.671 107.170,30.728 107.500 C 30.904 108.511,32.329 114.561,32.990 117.100 C 33.333 118.420,33.657 119.700,33.709 119.943 C 33.852 120.601,35.188 125.252,35.334 125.600 C 35.404 125.765,35.482 126.001,35.509 126.124 C 35.535 126.247,35.856 127.260,36.221 128.374 L 36.885 130.400 39.706 130.400 L 42.526 130.400 43.008 129.050 C 43.273 128.308,43.500 127.655,43.512 127.600 C 43.524 127.545,43.638 127.249,43.765 126.941 C 43.893 126.634,44.055 126.139,44.126 125.841 C 44.197 125.544,44.321 125.210,44.401 125.100 C 44.528 124.926,45.465 122.271,45.495 122.000 C 45.501 121.945,45.560 121.810,45.626 121.700 C 45.775 121.452,48.212 114.118,48.303 113.644 C 48.340 113.455,48.388 113.278,48.410 113.250 C 48.432 113.222,48.467 113.133,48.488 113.050 C 48.992 111.054,49.252 110.845,49.605 112.150 C 49.746 112.672,49.913 113.190,49.975 113.300 C 50.038 113.410,50.105 113.609,50.126 113.743 C 50.164 113.993,50.941 116.468,51.148 117.000 C 51.213 117.165,51.284 117.368,51.308 117.450 C 51.331 117.533,51.373 117.645,51.400 117.700 C 51.428 117.755,51.473 117.890,51.500 118.000 C 51.528 118.110,51.573 118.245,51.600 118.300 C 51.627 118.355,51.673 118.490,51.700 118.600 C 51.727 118.710,51.773 118.845,51.800 118.900 C 51.828 118.955,51.873 119.090,51.900 119.200 C 51.928 119.310,51.973 119.445,52.000 119.500 C 52.028 119.555,52.073 119.690,52.100 119.800 C 52.127 119.910,52.173 120.045,52.200 120.100 C 52.227 120.155,52.273 120.290,52.300 120.400 C 52.328 120.510,52.373 120.645,52.400 120.700 C 52.428 120.755,52.473 120.890,52.500 121.000 C 52.528 121.110,52.573 121.245,52.600 121.300 C 52.627 121.355,52.669 121.468,52.692 121.550 C 52.716 121.633,52.787 121.835,52.852 122.000 C 52.916 122.165,53.168 122.930,53.411 123.700 C 53.654 124.470,53.924 125.190,54.010 125.300 C 54.096 125.410,54.174 125.590,54.184 125.700 C 54.209 125.975,54.626 127.255,54.771 127.500 C 54.836 127.610,54.905 127.790,54.925 127.900 C 54.944 128.010,55.074 128.370,55.213 128.700 C 55.353 129.030,55.478 129.345,55.493 129.400 C 55.772 130.447,55.621 130.400,58.674 130.400 L 61.521 130.400 61.983 128.965 C 62.238 128.176,62.467 127.433,62.493 127.315 C 62.518 127.197,62.591 126.965,62.655 126.800 C 62.821 126.367,63.197 125.122,63.297 124.679 C 63.343 124.471,63.557 123.738,63.772 123.050 C 63.987 122.363,64.123 121.800,64.075 121.800 C 64.026 121.800,64.075 121.634,64.183 121.431 C 64.292 121.228,64.425 120.845,64.479 120.581 C 64.533 120.316,64.758 119.485,64.979 118.734 C 65.200 117.982,65.425 117.127,65.479 116.834 C 65.532 116.540,65.625 116.120,65.684 115.900 C 65.842 115.315,66.561 112.356,66.683 111.788 C 66.741 111.519,67.054 110.130,67.379 108.700 C 67.703 107.270,68.014 105.830,68.068 105.500 C 68.122 105.170,68.302 104.270,68.467 103.500 C 68.631 102.730,68.816 101.777,68.877 101.383 C 68.938 100.988,69.028 100.538,69.077 100.383 C 69.126 100.227,69.221 99.853,69.287 99.550 L 69.408 99.000 66.337 99.000 C 64.021 99.000,63.263 99.061,63.254 99.250 C 63.246 99.388,63.013 100.715,62.734 102.200 C 62.456 103.685,62.179 105.215,62.118 105.600 C 62.057 105.985,61.966 106.480,61.916 106.700 C 61.707 107.625,60.828 111.948,60.737 112.500 C 60.683 112.830,60.497 113.730,60.324 114.500 C 60.150 115.270,59.970 116.125,59.922 116.400 C 59.875 116.675,59.787 117.035,59.727 117.200 C 59.668 117.365,59.574 117.770,59.520 118.100 C 59.093 120.692,58.150 123.191,58.092 121.883 C 58.081 121.645,57.183 118.961,57.026 118.700 C 56.960 118.590,56.893 118.433,56.878 118.350 C 56.863 118.267,56.828 118.155,56.800 118.100 C 56.773 118.045,56.731 117.933,56.708 117.850 C 56.684 117.767,56.613 117.565,56.549 117.400 C 56.286 116.727,54.199 110.285,54.183 110.100 C 54.174 109.990,54.073 109.788,53.959 109.650 C 53.844 109.513,53.802 109.400,53.865 109.400 C 53.927 109.400,53.796 108.883,53.573 108.250 C 53.350 107.618,53.150 107.010,53.128 106.900 C 53.107 106.790,52.822 105.778,52.496 104.650 L 51.903 102.600 49.357 102.600 L 46.811 102.600 46.499 103.672 C 46.328 104.262,46.151 104.938,46.105 105.173 C 46.060 105.409,45.977 105.675,45.922 105.765 C 45.866 105.855,45.778 106.147,45.726 106.414 C 45.674 106.681,45.493 107.284,45.324 107.753 C 45.154 108.222,45.018 108.627,45.021 108.653 C 45.024 108.679,44.982 108.835,44.928 109.000 C 44.489 110.354,44.151 111.473,44.096 111.759 C 44.060 111.946,44.012 112.123,43.990 112.150 C 43.968 112.178,43.928 112.290,43.900 112.400 C 43.873 112.510,43.828 112.645,43.800 112.700 C 43.773 112.755,43.735 112.868,43.717 112.950 C 43.699 113.033,43.388 113.975,43.027 115.045 C 42.666 116.115,42.369 117.060,42.368 117.145 C 42.367 117.230,42.273 117.413,42.159 117.550 C 42.044 117.688,42.018 117.800,42.100 117.800 C 42.182 117.800,42.137 117.935,42.000 118.100 C 41.863 118.265,41.818 118.400,41.900 118.400 C 41.982 118.400,41.960 118.513,41.851 118.650 C 41.698 118.843,41.050 120.566,40.891 121.200 C 40.600 122.367,40.241 122.577,40.081 121.675 C 40.025 121.359,39.800 120.425,39.582 119.600 C 39.363 118.775,39.139 117.875,39.083 117.600 C 39.027 117.325,38.886 116.740,38.769 116.300 C 38.652 115.860,38.519 115.275,38.472 115.000 C 38.426 114.725,38.343 114.373,38.288 114.217 C 38.233 114.062,38.139 113.612,38.081 113.217 C 38.022 112.823,37.879 112.140,37.764 111.700 C 37.648 111.260,37.511 110.630,37.459 110.300 C 37.408 109.970,37.187 108.845,36.969 107.800 C 36.750 106.755,36.530 105.675,36.480 105.400 C 36.429 105.125,36.295 104.405,36.182 103.800 C 36.068 103.195,35.936 102.475,35.888 102.200 C 35.760 101.474,35.538 100.324,35.491 100.150 C 35.468 100.067,35.439 99.775,35.425 99.500 L 35.400 99.000 32.179 99.000 C 29.193 99.000,28.967 99.026,29.091 99.350 M148.878 104.139 C 152.070 104.851,155.129 107.327,155.743 109.696 C 158.367 119.831,154.354 125.584,144.650 125.597 L 142.000 125.600 142.000 114.815 C 142.000 104.714,142.022 104.023,142.350 103.931 C 143.070 103.729,147.701 103.876,148.878 104.139 M80.553 106.314 C 80.517 106.350,80.176 106.432,79.794 106.496 C 79.412 106.561,78.427 106.943,77.605 107.346 C 75.274 108.489,73.864 110.076,72.382 113.224 C 71.440 115.224,71.203 119.599,71.888 122.350 C 71.950 122.597,72.043 123.003,72.096 123.250 C 72.630 125.757,74.929 128.515,77.481 129.710 C 80.424 131.088,84.955 131.394,88.600 130.461 C 88.875 130.390,89.145 130.323,89.200 130.311 C 91.198 129.889,91.436 129.659,91.184 128.386 C 91.088 127.899,90.952 127.005,90.882 126.400 C 90.714 124.945,90.779 124.969,88.600 125.531 C 82.735 127.045,78.037 125.259,77.467 121.300 C 77.420 120.970,77.352 120.610,77.316 120.500 C 77.273 120.368,79.900 120.319,85.002 120.355 L 92.752 120.409 92.890 119.128 C 92.965 118.423,92.977 117.544,92.916 117.173 C 92.855 116.803,92.754 115.960,92.691 115.300 C 92.269 110.876,89.609 107.535,85.685 106.501 C 84.665 106.232,80.776 106.090,80.553 106.314 M175.550 106.477 C 175.138 106.629,174.800 106.700,174.800 106.636 C 174.800 106.572,174.692 106.628,174.560 106.760 C 174.428 106.892,174.173 107.000,173.994 107.000 C 172.238 107.000,168.312 111.502,167.715 114.200 C 167.654 114.475,167.517 115.105,167.411 115.600 C 166.945 117.765,167.335 123.098,168.019 123.923 C 168.145 124.075,168.188 124.200,168.113 124.200 C 167.754 124.200,169.430 126.825,170.428 127.826 C 171.515 128.914,173.800 130.248,175.000 130.493 C 175.275 130.549,175.905 130.683,176.400 130.789 C 177.570 131.041,180.997 131.050,182.400 130.806 C 184.209 130.491,184.685 130.394,185.000 130.276 C 185.165 130.215,185.516 130.123,185.781 130.073 C 187.032 129.834,187.116 129.660,186.793 127.977 C 186.679 127.385,186.537 126.495,186.477 126.001 C 186.349 124.939,186.325 124.904,185.859 125.106 C 184.082 125.873,178.942 126.259,177.200 125.755 C 175.124 125.155,173.517 123.343,173.119 121.152 L 172.983 120.405 180.741 120.352 L 188.500 120.300 188.478 117.700 C 188.442 113.356,187.654 111.111,185.338 108.755 C 183.291 106.671,178.224 105.492,175.550 106.477 M224.500 106.426 C 224.170 106.531,223.724 106.657,223.510 106.705 C 220.974 107.273,217.371 110.972,216.696 113.700 C 216.044 116.335,215.968 117.023,216.062 119.400 C 216.168 122.091,216.792 124.627,217.600 125.655 C 217.820 125.934,218.000 126.241,218.000 126.336 C 218.000 127.011,222.247 130.385,222.849 130.189 C 222.877 130.179,223.149 130.266,223.453 130.382 C 225.889 131.308,230.715 131.179,234.559 130.085 C 235.908 129.701,236.013 129.130,235.287 126.150 C 235.266 126.067,235.239 125.780,235.225 125.511 C 235.197 124.971,235.203 124.971,233.400 125.515 C 227.774 127.211,222.523 125.137,221.864 120.959 L 221.777 120.405 229.538 120.352 L 237.300 120.300 237.282 117.600 C 237.272 115.992,237.157 114.536,236.999 114.000 C 236.853 113.505,236.703 112.940,236.667 112.745 C 235.860 108.403,229.178 104.932,224.500 106.426 M263.100 106.573 C 259.602 107.578,256.790 110.402,255.704 114.000 C 255.688 114.055,255.566 114.460,255.434 114.900 C 255.077 116.089,254.924 119.530,255.172 120.800 C 255.512 122.550,255.575 122.816,255.821 123.579 C 257.369 128.363,261.590 131.178,266.867 130.946 C 270.525 130.784,272.014 130.149,274.486 127.694 C 275.607 126.580,276.071 125.862,276.873 123.995 C 277.684 122.108,278.051 118.041,277.603 115.900 C 277.222 114.079,277.178 113.915,276.876 113.205 C 274.516 107.657,268.839 104.924,263.100 106.573 M289.600 106.261 C 289.545 106.315,288.918 106.417,288.207 106.487 C 287.495 106.558,286.105 106.792,285.116 107.008 C 284.128 107.223,283.292 107.400,283.259 107.400 C 283.227 107.400,283.200 114.465,283.200 123.100 L 283.200 138.800 286.000 138.800 L 288.800 138.800 288.800 134.279 C 288.800 130.513,288.846 129.775,289.077 129.863 C 292.049 131.004,294.242 131.177,297.272 130.510 C 297.841 130.385,299.648 129.532,300.076 129.186 C 300.199 129.087,300.588 128.776,300.939 128.494 C 303.258 126.638,304.632 122.677,304.510 118.200 C 304.475 116.935,304.388 115.630,304.317 115.300 C 304.042 114.038,303.359 112.201,302.987 111.729 C 302.774 111.458,302.600 111.180,302.600 111.110 C 302.600 110.972,302.526 110.873,301.592 109.757 C 300.435 108.374,297.814 106.902,295.792 106.500 C 294.925 106.327,289.735 106.127,289.600 106.261 M317.300 106.418 C 316.970 106.528,316.524 106.657,316.310 106.705 C 313.739 107.281,310.058 111.124,309.514 113.800 C 309.503 113.855,309.436 113.990,309.366 114.100 C 308.570 115.347,308.634 120.296,309.490 123.662 C 310.235 126.596,313.629 129.854,316.600 130.489 C 316.875 130.547,317.505 130.683,318.000 130.789 C 320.216 131.266,324.277 130.962,327.340 130.091 C 327.912 129.928,328.436 129.704,328.504 129.593 C 328.636 129.380,328.019 125.000,327.857 125.000 C 327.805 125.000,327.118 125.202,326.331 125.449 C 324.925 125.891,320.093 126.110,318.900 125.786 C 317.208 125.327,315.140 123.314,314.883 121.875 C 314.861 121.751,314.781 121.369,314.706 121.027 L 314.569 120.405 322.335 120.352 L 330.100 120.300 330.095 118.100 C 330.091 116.071,330.002 115.112,329.694 113.800 C 329.629 113.525,329.557 113.210,329.533 113.100 C 329.509 112.990,329.418 112.788,329.333 112.650 C 329.247 112.513,329.228 112.400,329.291 112.400 C 329.588 112.400,328.092 109.891,327.270 109.009 C 326.352 108.025,324.173 106.762,322.900 106.476 C 321.883 106.248,317.934 106.206,317.300 106.418 M342.191 106.276 C 342.140 106.327,341.558 106.431,340.899 106.507 C 340.239 106.583,339.543 106.728,339.350 106.829 C 339.158 106.931,339.000 106.972,339.000 106.921 C 339.000 106.870,338.707 106.917,338.350 107.026 C 337.993 107.134,337.500 107.264,337.255 107.315 C 337.011 107.365,336.583 107.492,336.305 107.598 L 335.800 107.790 335.800 119.095 L 335.800 130.400 338.598 130.400 L 341.396 130.400 341.448 120.950 L 341.500 111.500 343.000 111.246 C 344.703 110.958,346.966 111.137,348.950 111.715 C 349.300 111.818,349.403 111.764,349.415 111.473 C 349.424 111.268,349.460 110.965,349.496 110.800 C 350.147 107.828,350.248 107.169,350.080 107.006 C 349.981 106.911,349.630 106.785,349.300 106.727 C 348.970 106.669,348.207 106.537,347.603 106.433 C 346.449 106.235,342.351 106.116,342.191 106.276 M191.358 106.709 C 191.293 106.774,191.459 107.519,191.727 108.364 C 191.996 109.209,192.255 110.074,192.303 110.286 C 192.521 111.244,194.277 116.329,194.477 116.581 C 194.600 116.735,194.663 116.870,194.618 116.881 C 194.508 116.907,194.963 118.289,195.447 119.400 C 195.663 119.895,195.909 120.480,195.993 120.700 C 196.189 121.210,196.360 121.633,197.411 124.200 C 197.884 125.355,198.699 127.222,199.222 128.350 L 200.174 130.400 202.637 130.395 L 205.100 130.391 205.573 129.345 C 205.833 128.770,206.449 127.355,206.942 126.200 C 207.434 125.045,207.919 123.943,208.020 123.750 C 208.484 122.863,211.147 115.931,211.305 115.200 C 211.340 115.035,211.388 114.878,211.410 114.850 C 211.432 114.822,211.472 114.710,211.500 114.600 C 211.528 114.490,211.572 114.355,211.600 114.300 C 211.628 114.245,211.673 114.110,211.700 114.000 C 211.728 113.890,211.773 113.755,211.800 113.700 C 211.828 113.645,211.873 113.510,211.900 113.400 C 211.928 113.290,211.972 113.155,212.000 113.100 C 212.028 113.045,212.072 112.910,212.100 112.800 C 212.128 112.690,212.168 112.578,212.190 112.550 C 212.212 112.522,212.261 112.365,212.299 112.200 C 212.337 112.035,212.542 111.405,212.756 110.800 C 212.969 110.195,213.153 109.631,213.165 109.548 C 213.176 109.464,213.369 108.802,213.593 108.077 C 213.817 107.351,214.000 106.720,214.000 106.674 C 214.000 106.397,208.134 106.721,208.081 107.000 C 207.979 107.533,207.834 108.067,207.292 109.900 C 206.999 110.890,206.730 111.835,206.693 112.000 C 206.657 112.165,206.401 112.953,206.125 113.750 C 205.849 114.547,205.674 115.200,205.736 115.200 C 205.798 115.200,205.737 115.335,205.600 115.500 C 205.463 115.665,205.418 115.800,205.500 115.800 C 205.582 115.800,205.537 115.935,205.400 116.100 C 205.263 116.265,205.218 116.400,205.300 116.400 C 205.382 116.400,205.337 116.535,205.200 116.700 C 205.063 116.865,205.018 117.000,205.100 117.000 C 205.182 117.000,205.137 117.135,205.000 117.300 C 204.863 117.465,204.818 117.600,204.900 117.600 C 204.982 117.600,204.960 117.713,204.851 117.850 C 204.701 118.040,203.858 120.328,203.691 121.000 C 203.678 121.055,203.562 121.353,203.433 121.663 C 203.305 121.973,203.197 122.333,203.194 122.463 C 203.168 123.414,202.489 123.411,202.289 122.459 C 202.261 122.326,202.094 121.930,201.919 121.578 C 201.744 121.226,201.600 120.868,201.600 120.782 C 201.600 120.696,201.496 120.373,201.369 120.063 C 201.242 119.753,201.114 119.410,201.084 119.300 C 201.053 119.190,200.611 117.885,200.101 116.400 C 199.591 114.915,199.131 113.485,199.078 113.222 C 199.025 112.959,198.856 112.442,198.701 112.072 C 198.547 111.702,198.459 111.400,198.505 111.400 C 198.552 111.400,198.494 111.153,198.377 110.850 C 198.260 110.547,198.137 110.165,198.102 110.000 C 198.068 109.835,197.892 109.160,197.710 108.500 C 197.529 107.840,197.354 107.165,197.321 107.000 C 197.261 106.694,191.647 106.420,191.358 106.709 M84.103 111.077 C 85.227 111.257,86.611 112.921,87.055 114.627 C 87.489 116.294,87.775 116.200,82.258 116.200 L 77.350 116.200 77.490 115.550 C 77.567 115.192,77.650 114.810,77.675 114.700 C 77.966 113.406,79.261 111.872,80.500 111.354 C 81.789 110.814,82.239 110.780,84.103 111.077 M180.495 111.448 C 181.708 112.067,182.685 113.657,182.899 115.361 L 183.005 116.200 178.004 116.200 C 172.351 116.200,172.824 116.379,173.467 114.478 C 174.505 111.415,177.715 110.030,180.495 111.448 M229.121 111.362 C 230.218 111.924,231.343 113.323,231.521 114.345 C 231.544 114.479,231.624 114.952,231.699 115.395 L 231.835 116.200 226.839 116.200 L 221.843 116.200 222.012 115.448 C 222.516 113.203,223.981 111.405,225.568 111.084 C 225.716 111.054,225.879 110.988,225.930 110.937 C 226.166 110.701,228.417 111.001,229.121 111.362 M321.921 111.362 C 323.301 112.069,324.190 113.444,324.498 115.350 L 324.635 116.200 319.639 116.200 L 314.643 116.200 314.831 115.350 C 315.306 113.203,316.852 111.335,318.368 111.076 C 318.516 111.051,318.679 110.988,318.730 110.937 C 318.966 110.701,321.217 111.001,321.921 111.362 M110.720 111.495 C 111.898 111.987,113.261 113.525,113.516 114.650 C 113.579 114.928,113.600 115.000,113.632 115.050 C 113.860 115.406,114.082 118.175,113.979 119.376 C 113.533 124.568,110.294 126.908,104.953 125.898 L 104.205 125.756 104.153 119.028 L 104.100 112.300 104.800 111.982 C 105.185 111.807,105.590 111.637,105.700 111.604 C 105.810 111.571,106.215 111.433,106.600 111.297 C 107.512 110.975,109.730 111.082,110.720 111.495 M268.597 111.529 C 273.624 113.623,273.017 124.579,267.800 125.916 C 262.751 127.209,259.613 122.006,261.276 115.100 C 262.022 111.999,265.572 110.268,268.597 111.529 M295.008 111.578 C 296.421 112.113,298.041 113.814,298.317 115.050 C 298.335 115.133,298.369 115.222,298.391 115.250 C 298.681 115.599,298.814 120.059,298.576 121.400 C 297.873 125.352,293.985 127.140,290.050 125.323 L 288.800 124.745 288.800 118.093 L 288.800 111.440 289.550 111.257 C 290.854 110.939,293.776 111.111,295.008 111.578 " stroke="none" fill="#4c6e8d" fill-rule="evenodd"></path></g></svg>