<svg id="svg" version="1.1" width="400" height="400" xmlns="http://www.w3.org/2000/svg" xmlns:xlink="http://www.w3.org/1999/xlink" style="display: block;"><g id="svgg"><path id="path0" d="M102.800 117.400 L 102.800 188.400 116.600 188.400 L 130.400 188.400 130.400 142.969 L 130.400 97.539 166.841 142.969 L 203.281 188.400 214.642 188.400 L 226.002 188.400 225.901 117.500 L 225.800 46.600 212.000 46.600 L 198.200 46.600 198.000 92.776 L 197.800 138.952 161.063 92.676 L 124.325 46.400 113.563 46.400 L 102.800 46.400 102.800 117.400 M288.600 157.438 C 257.308 160.598,239.198 180.021,242.390 207.000 C 244.516 224.969,254.066 232.348,287.748 242.050 C 309.112 248.203,314.931 251.113,317.880 257.119 C 320.219 261.882,319.030 268.759,315.303 272.032 C 303.990 281.964,269.459 276.227,250.538 261.271 L 248.547 259.697 242.430 271.672 C 239.065 278.258,236.377 283.698,236.456 283.761 C 249.327 294.070,275.004 302.000,295.513 302.000 C 331.046 302.000,351.452 284.022,348.476 255.341 C 346.358 234.923,334.989 226.057,298.800 216.600 C 275.879 210.611,270.351 206.649,270.879 196.591 C 271.836 178.350,303.255 176.348,327.766 192.967 L 331.551 195.533 337.639 184.329 C 342.528 175.330,343.615 173.051,343.163 172.748 C 327.100 161.980,305.007 155.781,288.600 157.438 " stroke="none" fill="#ffffff" fill-rule="evenodd"></path><path id="path1" d="M68.800 173.600 L 68.800 315.200 234.400 315.200 L 400.000 315.200 400.000 173.600 L 400.000 32.000 234.400 32.000 L 68.800 32.000 68.800 173.600 M161.063 92.676 L 197.800 138.952 198.000 92.776 L 198.200 46.600 212.000 46.600 L 225.800 46.600 225.901 117.500 L 226.002 188.400 214.642 188.400 L 203.281 188.400 166.841 142.969 L 130.400 97.539 130.400 142.969 L 130.400 188.400 116.600 188.400 L 102.800 188.400 102.800 117.400 L 102.800 46.400 113.563 46.400 L 124.325 46.400 161.063 92.676 M306.553 158.199 C 318.237 159.964,332.619 165.680,343.163 172.748 C 343.615 173.051,342.528 175.330,337.639 184.329 L 331.551 195.533 327.766 192.967 C 303.255 176.348,271.836 178.350,270.879 196.591 C 270.351 206.649,275.879 210.611,298.800 216.600 C 334.989 226.057,346.358 234.923,348.476 255.341 C 351.452 284.022,331.046 302.000,295.513 302.000 C 275.004 302.000,249.327 294.070,236.456 283.761 C 236.377 283.698,239.065 278.258,242.430 271.672 L 248.547 259.697 250.538 261.271 C 269.459 276.227,303.990 281.964,315.303 272.032 C 319.030 268.759,320.219 261.882,317.880 257.119 C 314.931 251.113,309.112 248.203,287.748 242.050 C 254.066 232.348,244.516 224.969,242.390 207.000 C 239.198 180.021,257.308 160.598,288.600 157.438 C 291.602 157.135,302.591 157.601,306.553 158.199 " stroke="none" fill="#4c6e8d" fill-rule="evenodd"></path></g></svg>